<svg xmlns="http://www.w3.org/2000/svg" width="256" height="36"><g fill="#999" fill-rule="evenodd"><path fill-rule="nonzero" d="m50.074 27.57 2.494-6.695h8.593l1.601-4.27h-8.621l1.606-4.296h9.765l1.6-4.268H51.823L44.55 27.57h5.524zm40.724.391c1.88 0 3.58-.288 5.102-.865 1.522-.576 2.76-1.39 3.713-2.441a7.127 7.127 0 0 0 1.786-3.64c.192-1.117.05-2.019-.427-2.707a4.333 4.333 0 0 0-1.87-1.535c-.77-.334-1.76-.66-2.97-.976-1.083-.298-1.872-.577-2.367-.837-.494-.26-.7-.633-.616-1.116.096-.558.486-1.014 1.17-1.367.684-.354 1.575-.53 2.672-.53.967 0 1.89.125 2.767.376a7.59 7.59 0 0 1 2.335 1.102l2.716-4.101c-.781-.54-1.751-.953-2.91-1.242-1.16-.288-2.437-.432-3.832-.432-1.897 0-3.602.288-5.115.865-1.513.576-2.742 1.39-3.686 2.441a7.223 7.223 0 0 0-1.776 3.669c-.199 1.153-.057 2.083.426 2.79a4.398 4.398 0 0 0 1.89 1.576c.778.344 1.77.684 2.977 1.019 1.065.297 1.84.576 2.325.837.485.26.688.623.608 1.088-.093.54-.46.962-1.098 1.27-.639.306-1.488.46-2.549.46a11.03 11.03 0 0 1-3.263-.489 9.878 9.878 0 0 1-2.905-1.436l-2.889 4.129c.806.614 1.9 1.116 3.284 1.506 1.383.39 2.884.586 4.502.586zm-22.789-.39 1.885-5.106H73.8c1.934 0 3.69-.335 5.265-1.005 1.576-.67 2.864-1.618 3.867-2.845 1.002-1.228 1.644-2.66 1.926-4.297.343-1.99-.079-3.534-1.266-4.631-1.187-1.098-3.046-1.646-5.575-1.646h-8.259l-7.273 19.53h5.524zm3.5-9.459 2.13-5.719h2.902c.986 0 1.71.2 2.17.6.462.4.623 1 .485 1.8-.182 1.06-.654 1.878-1.413 2.455-.76.576-1.754.864-2.981.864h-3.293zm47.049 9.459c2.66 0 4.908-.526 6.744-1.577 1.837-1.05 2.93-2.59 3.28-4.617.154-.893.06-1.67-.282-2.33-.342-.66-.9-1.176-1.672-1.548 1.177-.465 2.144-1.112 2.9-1.94a5.701 5.701 0 0 0 1.429-2.943c.253-1.47-.133-2.6-1.16-3.39-1.025-.79-2.636-1.185-4.83-1.185h-9.877l-7.274 19.53h10.742zm-.9-11.774 1.403-3.767h3.906c1.544 0 2.228.512 2.051 1.535-.125.725-.476 1.279-1.053 1.66-.578.381-1.359.572-2.345.572h-3.962zm-2.904 7.784 1.464-3.962h4.883c.706 0 1.241.135 1.604.405s.496.683.4 1.241c-.132.763-.51 1.34-1.136 1.73-.625.39-1.43.586-2.416.586h-4.8zm24.996 4.38c2.363 0 4.556-.502 6.58-1.506a14.025 14.025 0 0 0 5.046-4.185 13.808 13.808 0 0 0 2.587-6.027c.289-1.674.15-3.162-.416-4.464-.566-1.302-1.517-2.316-2.852-3.04-1.335-.726-2.988-1.089-4.96-1.089-2.362 0-4.555.502-6.579 1.507a13.988 13.988 0 0 0-5.046 4.185 13.8 13.8 0 0 0-2.587 6.026c-.289 1.674-.15 3.162.416 4.464.566 1.302 1.516 2.316 2.851 3.041 1.335.726 2.989 1.088 4.96 1.088zm1.264-4.575c-1.451 0-2.513-.396-3.186-1.186-.673-.79-.895-1.846-.668-3.167a8.898 8.898 0 0 1 1.343-3.418 7.84 7.84 0 0 1 2.574-2.469 6.538 6.538 0 0 1 3.395-.92c1.451 0 2.513.395 3.186 1.185.672.79.895 1.846.667 3.167a8.897 8.897 0 0 1-1.342 3.418 7.84 7.84 0 0 1-2.574 2.469 6.538 6.538 0 0 1-3.395.92zm23.24 4.575c2.362 0 4.555-.502 6.579-1.506a14.008 14.008 0 0 0 5.046-4.185 13.797 13.797 0 0 0 2.587-6.027c.289-1.674.15-3.162-.416-4.464-.566-1.302-1.516-2.316-2.851-3.04-1.335-.726-2.989-1.089-4.96-1.089-2.362 0-4.555.502-6.58 1.507a13.993 13.993 0 0 0-5.045 4.185 13.801 13.801 0 0 0-2.588 6.026c-.288 1.674-.15 3.162.416 4.464.566 1.302 1.517 2.316 2.852 3.041 1.335.726 2.988 1.088 4.96 1.088zm1.263-4.575c-1.45 0-2.513-.396-3.185-1.186-.673-.79-.896-1.846-.668-3.167a8.897 8.897 0 0 1 1.342-3.418 7.849 7.849 0 0 1 2.574-2.469 6.54 6.54 0 0 1 3.396-.92c1.45 0 2.512.395 3.185 1.185s.895 1.846.668 3.167a8.898 8.898 0 0 1-1.343 3.418 7.84 7.84 0 0 1-2.574 2.469 6.536 6.536 0 0 1-3.395.92zm19.976 4.575c1.878 0 3.579-.288 5.101-.865 1.523-.576 2.76-1.39 3.713-2.441a7.12 7.12 0 0 0 1.786-3.64c.192-1.117.05-2.019-.426-2.707a4.339 4.339 0 0 0-1.87-1.535c-.77-.334-1.76-.66-2.97-.976-1.084-.298-1.873-.577-2.367-.837-.495-.26-.7-.633-.617-1.116.096-.558.487-1.014 1.17-1.367.685-.354 1.575-.53 2.673-.53.967 0 1.89.125 2.767.376s1.655.619 2.335 1.102l2.715-4.101c-.78-.54-1.751-.953-2.91-1.242-1.16-.288-2.437-.432-3.832-.432-1.897 0-3.602.288-5.115.865-1.513.576-2.741 1.39-3.685 2.441s-1.536 2.274-1.777 3.669c-.199 1.153-.057 2.083.426 2.79a4.41 4.41 0 0 0 1.89 1.576c.778.344 1.77.684 2.978 1.019 1.064.297 1.84.576 2.324.837.486.26.688.623.608 1.088-.093.54-.459.962-1.098 1.27-.639.306-1.488.46-2.548.46-1.116 0-2.204-.163-3.264-.489a9.89 9.89 0 0 1-2.905-1.436l-2.888 4.129c.805.614 1.9 1.116 3.283 1.506 1.384.39 2.885.586 4.503.586zm21.111-.39 5.653-15.15h5.97l1.649-4.38h-17.494l-1.648 4.38h5.999l-5.653 15.15h5.524zm24.165 0 1.629-4.27h-10.24l1.314-3.57h8.705l1.52-4.13h-8.676l1.209-3.292h9.849l1.6-4.268H222.39l-7.273 19.53h15.652zm7.721 0 1.927-5.19h2.79l2.007 5.19h5.775l-2.31-5.86c1.814-.595 3.307-1.539 4.478-2.831 1.172-1.293 1.911-2.832 2.22-4.618.336-1.953-.09-3.478-1.276-4.575-1.188-1.098-3.027-1.646-5.52-1.646h-8.342l-6.823 19.53h5.074zm3.5-9.459 2.158-5.719h2.902c.967 0 1.686.2 2.156.6.47.4.637 1 .499 1.8-.183 1.06-.659 1.878-1.428 2.455-.769.576-1.767.864-2.995.864h-3.292z"/><path d="M1.484 36 0 31.475 12.616 0H38.39c3.306 0 4.858 2.432 3.306 6.214-1.552 3.782-2.496 5.876-3.306 7.7-.54 1.215-1.642 2.229-3.306 3.04 1.35.81 1.687 2.07 1.012 3.781-1.012 2.567-2.429 6.687-3.306 8.713-.877 2.027-2.429 2.905-4.25 2.905H12.616l2.497-6.35h10.12c1.484 0 2.429-.27 3.306-2.768.877-2.5 2.361-3.85-1.147-3.85H17.339l2.092-6.35h10.997c1.484 0 2.564-.472 3.44-3.106.878-2.634 1.418-3.715-1.956-3.715H16.327L6.072 32.353 1.484 36z"/></g></svg>