<svg xmlns="http://www.w3.org/2000/svg" width="172" height="26"><defs><linearGradient id="a" x1="64.98%" x2="44.805%" y1="13.785%" y2="80.942%"><stop offset="0%" stop-color="#5DD8EC"/><stop offset="100%" stop-color="#0E65D7"/></linearGradient><linearGradient id="b" x1="61.901%" x2="32.349%" y1="13.785%" y2="82.267%"><stop offset="0%" stop-color="#64E5FA"/><stop offset="100%" stop-color="#116AD9"/></linearGradient></defs><g fill="none" fill-rule="evenodd"><path fill="#FFF" fill-rule="nonzero" d="m34.383 19.38 1.662-4.464h5.73l1.066-2.845h-5.747l1.07-2.865h6.51l1.068-2.846H35.549L30.7 19.38h3.683zm27.15.26c1.252 0 2.385-.191 3.4-.576 1.015-.384 1.84-.927 2.476-1.627a4.747 4.747 0 0 0 1.19-2.428c.128-.744.034-1.345-.284-1.804a2.884 2.884 0 0 0-1.247-1.023c-.513-.223-1.173-.44-1.98-.65-.722-.2-1.248-.385-1.578-.559-.33-.173-.466-.421-.41-.744.063-.372.323-.676.78-.911.455-.236 1.05-.354 1.78-.354.646 0 1.26.084 1.845.252a5.06 5.06 0 0 1 1.557.734l1.81-2.734c-.52-.36-1.167-.636-1.94-.828a10.59 10.59 0 0 0-2.554-.288c-1.265 0-2.402.192-3.41.577-1.009.384-1.828.927-2.457 1.627a4.802 4.802 0 0 0-1.184 2.446c-.133.769-.038 1.389.283 1.86.322.471.742.822 1.26 1.05.52.23 1.18.457 1.985.68.71.198 1.227.384 1.55.558.324.173.459.415.405.725-.062.36-.306.642-.731.847-.426.204-.993.306-1.7.306a7.366 7.366 0 0 1-2.175-.325 6.589 6.589 0 0 1-1.937-.958l-1.925 2.753c.537.409 1.266.744 2.189 1.004.922.26 1.923.39 3.001.39zm-15.193-.26 1.256-3.403H50.2c1.29 0 2.46-.224 3.51-.67 1.05-.446 1.91-1.079 2.578-1.897.668-.819 1.096-1.773 1.284-2.865.229-1.326-.053-2.356-.844-3.087-.791-.732-2.03-1.098-3.717-1.098h-5.505l-4.85 13.02h3.684zm2.333-6.305 1.42-3.813h1.934c.658 0 1.14.133 1.447.4.308.266.415.666.324 1.2-.122.706-.436 1.252-.943 1.636-.506.385-1.169.577-1.987.577h-2.195zm31.366 6.305c1.773 0 3.272-.35 4.496-1.05 1.224-.701 1.953-1.727 2.186-3.079.103-.595.04-1.113-.188-1.553-.228-.44-.6-.784-1.115-1.032.786-.31 1.43-.741 1.935-1.293a3.813 3.813 0 0 0 .952-1.962c.169-.98-.089-1.733-.773-2.26-.684-.527-1.758-.79-3.221-.79h-6.585l-4.848 13.02h7.16zm-.6-7.849.935-2.51h2.604c1.03 0 1.485.34 1.367 1.022-.083.484-.317.853-.702 1.107-.385.254-.906.381-1.563.381h-2.64zm-1.936 5.19.976-2.642h3.255c.471 0 .827.09 1.07.27.241.18.33.456.266.828-.088.508-.34.893-.757 1.153s-.954.39-1.611.39h-3.2zm16.664 2.92c1.575 0 3.037-.335 4.386-1.005 1.35-.67 2.47-1.6 3.364-2.79a9.212 9.212 0 0 0 1.725-4.017c.192-1.116.1-2.108-.277-2.976-.378-.868-1.011-1.544-1.901-2.028-.89-.483-1.993-.725-3.307-.725-1.575 0-3.037.335-4.386 1.004-1.35.67-2.47 1.6-3.364 2.79a9.187 9.187 0 0 0-1.725 4.018c-.193 1.116-.1 2.108.277 2.976.378.868 1.011 1.544 1.901 2.027.89.484 1.993.726 3.307.726zm.842-3.05c-.967 0-1.675-.264-2.124-.791-.448-.527-.596-1.23-.445-2.111.144-.831.442-1.59.895-2.279a5.236 5.236 0 0 1 1.716-1.646 4.36 4.36 0 0 1 2.264-.614c.967 0 1.675.264 2.123.79.449.528.597 1.232.446 2.112a5.941 5.941 0 0 1-.896 2.279 5.226 5.226 0 0 1-1.716 1.646 4.359 4.359 0 0 1-2.263.613zm15.494 3.05c1.574 0 3.036-.335 4.386-1.005a9.347 9.347 0 0 0 3.364-2.79 9.212 9.212 0 0 0 1.725-4.017c.192-1.116.1-2.108-.278-2.976-.377-.868-1.01-1.544-1.9-2.028-.89-.483-1.993-.725-3.307-.725-1.575 0-3.037.335-4.387 1.004a9.347 9.347 0 0 0-3.364 2.79 9.21 9.21 0 0 0-1.725 4.018c-.192 1.116-.1 2.108.278 2.976.377.868 1.01 1.544 1.9 2.027.89.484 1.993.726 3.308.726zm.842-3.05c-.968 0-1.675-.264-2.124-.791-.449-.527-.597-1.23-.445-2.111.143-.831.442-1.59.895-2.279a5.216 5.216 0 0 1 1.716-1.646 4.36 4.36 0 0 1 2.263-.614c.968 0 1.675.264 2.124.79.449.528.597 1.232.445 2.112a5.924 5.924 0 0 1-.895 2.279 5.226 5.226 0 0 1-1.716 1.646 4.359 4.359 0 0 1-2.263.613zm13.317 3.05c1.252 0 2.386-.192 3.4-.577 1.016-.384 1.84-.927 2.476-1.627a4.74 4.74 0 0 0 1.19-2.428c.129-.744.034-1.345-.284-1.804a2.882 2.882 0 0 0-1.246-1.023c-.513-.223-1.173-.44-1.98-.65-.722-.2-1.248-.385-1.578-.559-.33-.173-.467-.421-.411-.744.064-.372.324-.676.78-.911.456-.236 1.05-.354 1.781-.354.645 0 1.26.084 1.845.252a5.06 5.06 0 0 1 1.557.734l1.81-2.734c-.52-.36-1.167-.636-1.94-.828a10.59 10.59 0 0 0-2.554-.288c-1.265 0-2.402.192-3.41.577-1.01.384-1.828.927-2.457 1.627a4.812 4.812 0 0 0-1.185 2.446c-.132.769-.038 1.389.284 1.86.322.471.742.822 1.26 1.05.519.23 1.18.457 1.985.68.71.198 1.226.384 1.55.558.323.173.458.415.405.725-.062.36-.306.642-.732.847-.426.204-.992.306-1.699.306-.744 0-1.47-.108-2.176-.325a6.583 6.583 0 0 1-1.936-.958l-1.926 2.753c.537.409 1.267.744 2.19 1.004.922.26 1.922.39 3 .39zm14.074-.26 3.769-10.1h3.98l1.099-2.92h-11.662l-1.1 2.92h4l-3.769 10.1h3.683zm16.11 0 1.086-2.846h-6.826l.875-2.381h5.803l1.014-2.753h-5.784l.806-2.195h6.566l1.067-2.846H149.26l-4.849 13.02h10.435zm5.147 0 1.285-3.46h1.86l1.338 3.46h3.85l-1.54-3.907c1.21-.396 2.205-1.026 2.986-1.888.78-.861 1.274-1.887 1.479-3.078.224-1.302-.06-2.319-.85-3.05-.792-.732-2.019-1.098-3.68-1.098h-5.562l-4.548 13.02h3.382zm2.334-6.306 1.438-3.813h1.935c.645 0 1.124.133 1.437.4.314.266.425.666.333 1.2-.122.706-.44 1.252-.952 1.636-.513.385-1.178.577-1.996.577h-2.195z"/><path fill="url(#a)" stroke="url(#b)" stroke-width=".5" d="M.99 24 0 20.983 8.411 0h17.182c2.204 0 3.238 1.621 2.204 4.143-1.035 2.521-1.664 3.917-2.204 5.133-.36.81-1.095 1.486-2.204 2.026.9.54 1.124 1.38.674 2.522-.674 1.71-1.619 4.457-2.203 5.808-.585 1.351-1.62 1.936-2.834 1.936H8.41l1.664-4.232h6.747c.99 0 1.62-.18 2.204-1.846.585-1.666 1.574-2.567-.765-2.567h-6.7l1.395-4.233h7.331c.99 0 1.71-.315 2.294-2.07.585-1.757.945-2.477-1.304-2.477h-10.39L4.048 21.568.99 24z" transform="translate(1 1)"/></g></svg>